HIERARCHY
ROOT root
{
	OFFSET 0.000000 0.000000 0.000000
	CHANNELS 6 Xposition Yposition Zposition Zrotation Yrotation Xrotation
	JOINT lhip
	{
		OFFSET 0.058581 -0.082280 -0.017664
		CHANNELS 3 Zrotation Yrotation Xrotation
		JOINT lknee
		{
			OFFSET 0.043451 -0.386469 0.008037
			CHANNELS 3 Zrotation Yrotation Xrotation
			JOINT lankle
			{
				OFFSET -0.014790 -0.426874 -0.037428
				CHANNELS 3 Zrotation Yrotation Xrotation
				JOINT ltoe
				{
					OFFSET 0.041054 -0.060286 0.122042
					CHANNELS 3 Zrotation Yrotation Xrotation
					End Site
					{
						OFFSET 0.000000 0.000000 0.000000
					}
				}
			}
		}
	}
	JOINT rhip
	{
		OFFSET -0.060310 -0.090513 -0.013543
		CHANNELS 3 Zrotation Yrotation Xrotation
		JOINT rknee
		{
			OFFSET -0.043257 -0.383688 -0.004843
			CHANNELS 3 Zrotation Yrotation Xrotation
			JOINT rankle
			{
				OFFSET 0.019056 -0.420046 -0.034562
				CHANNELS 3 Zrotation Yrotation Xrotation
				JOINT rtoe
				{
					OFFSET -0.034840 -0.062106 0.130323
					CHANNELS 3 Zrotation Yrotation Xrotation
					End Site
					{
						OFFSET 0.000000 0.000000 0.000000
					}
				}
			}
		}
	}
	JOINT lowerback
	{
		OFFSET 0.004439 0.124404 -0.038385
		CHANNELS 3 Zrotation Yrotation Xrotation
		JOINT upperback
		{
			OFFSET 0.004488 0.137956 0.026820
			CHANNELS 3 Zrotation Yrotation Xrotation
			JOINT chest
			{
				OFFSET -0.002265 0.056032 0.002855
				CHANNELS 3 Zrotation Yrotation Xrotation
				JOINT lowerneck
				{
					OFFSET -0.013390 0.211636 -0.033468
					CHANNELS 3 Zrotation Yrotation Xrotation
					JOINT upperneck
					{
						OFFSET 0.010113 0.088937 0.050410
						CHANNELS 3 Zrotation Yrotation Xrotation
						End Site
						{
							OFFSET 0.000000 0.000000 0.000000
						}
					}
				}
				JOINT lclavicle
				{
					OFFSET 0.071702 0.114000 -0.018898
					CHANNELS 3 Zrotation Yrotation Xrotation
					JOINT lshoulder
					{
						OFFSET 0.122921 0.045205 -0.019046
						CHANNELS 3 Zrotation Yrotation Xrotation
						JOINT lelbow
						{
							OFFSET 0.255332 -0.015649 -0.022946
							CHANNELS 3 Zrotation Yrotation Xrotation
							JOINT lwrist
							{
								OFFSET 0.265709 0.012698 -0.007375
								CHANNELS 3 Zrotation Yrotation Xrotation
								End Site
								{
									OFFSET 0.000000 0.000000 0.000000
								}
							}
						}
					}
				}
				JOINT rclavicle
				{
					OFFSET -0.082954 0.112472 -0.023707
					CHANNELS 3 Zrotation Yrotation Xrotation
					JOINT rshoulder
					{
						OFFSET -0.113228 0.046853 -0.008472
						CHANNELS 3 Zrotation Yrotation Xrotation
						JOINT relbow
						{
							OFFSET -0.260127 -0.014369 -0.031269
							CHANNELS 3 Zrotation Yrotation Xrotation
							JOINT rwrist
							{
								OFFSET -0.269108 0.006794 -0.006027
								CHANNELS 3 Zrotation Yrotation Xrotation
								End Site
								{
									OFFSET 0.000000 0.000000 0.000000
								}
							}
						}
					}
				}
			}
		}
	}
}
MOTION
Frames: 18
Frame Time: 0.033333
0.364755 0.169220 0.996795 84.592029 0.285278 89.488129 7.192791 5.286424 6.899233 -3.825738 -0.296096 -6.557644 -0.448671 8.455504 -2.813385 0.000000 -0.000000 0.000000 -7.271964 -3.978045 1.495814 2.284011 -1.771424 0.747742 5.446436 -3.527793 -5.025601 0.000000 -0.000000 0.000000 -2.884787 3.257192 -5.761389 1.538269 -1.111978 11.649123 -0.243681 0.875076 -3.651360 3.939297 4.253176 4.294907 4.642296 -2.314802 -1.098208 -28.619250 -1.683608 0.480407 -54.289836 -6.861679 14.655189 3.566310 -24.408450 7.118914 -7.180597 -13.402193 7.801185 29.995948 5.446130 6.947133 53.737236 5.292860 14.144839 -8.963768 25.073518 0.315389 3.859771 10.405625 4.336886 
0.364584 0.169066 0.996336 84.573793 0.269302 89.600533 7.169514 5.167521 6.775235 -3.852569 -0.246704 -6.546978 -0.467672 8.427417 -2.742930 0.000000 -0.000000 0.000000 -7.318046 -3.885970 1.346652 2.331146 -1.790721 0.786571 5.517821 -3.564474 -5.100422 0.000000 -0.000000 0.000000 -3.055594 3.217072 -6.038557 1.466708 -1.006776 11.602414 -0.076589 1.198329 -3.247427 4.116414 4.349548 3.656981 4.791095 -2.704885 -0.583874 -28.066298 -2.137870 0.774993 -55.007559 -7.226423 14.346441 4.038741 -24.171382 6.748026 -7.270408 -13.686688 7.331890 29.766233 5.607794 7.759650 54.134646 5.468201 13.801583 -9.732196 25.483954 -0.014239 3.532486 10.585743 3.836695 
0.364609 0.168941 0.996306 84.565058 0.226425 89.838513 7.113792 5.281951 6.487973 -3.874080 -0.212312 -6.473975 -0.506190 8.410328 -2.787685 0.000000 -0.000000 0.000000 -7.337164 -3.899030 1.076378 2.327426 -1.604302 0.820618 5.687270 -3.721104 -5.256783 0.000000 -0.000000 0.000000 -3.242696 3.236361 -6.691095 1.628336 -1.142731 12.138076 -0.169606 1.390937 -3.332942 4.190285 4.419131 3.832003 4.800704 -2.847759 -0.878039 -27.899783 -2.431055 0.873754 -55.285817 -6.725888 16.554681 0.712296 -23.913278 12.562840 -9.208136 -13.766474 10.032512 29.756068 5.452567 7.610734 54.053384 5.490119 13.907135 -9.588872 25.493570 0.342137 3.783340 10.621371 3.721986 
0.365254 0.168210 0.996752 84.705560 0.111236 90.087370 7.023181 5.246624 6.280543 -3.902771 -0.314351 -6.504087 -0.588034 8.417521 -2.848629 0.000000 -0.000000 0.000000 -7.299093 -3.850538 1.108632 2.226918 -1.533093 0.364082 5.560464 -3.961245 -5.224940 0.000000 -0.000000 0.000000 -3.283009 3.348391 -7.016245 1.511727 -1.174653 12.360931 -0.407486 1.003327 -3.825257 4.328070 4.406003 4.249914 4.825936 -2.682666 -0.903620 -27.823415 -2.095714 0.716311 -55.031211 -6.686586 16.674534 0.597002 -23.410386 12.325971 -9.222723 -13.966192 10.209430 29.798548 5.340169 7.142215 54.252129 5.390992 14.538557 -8.926936 24.675372 0.514483 3.765562 10.977943 3.827717 
0.365100 0.168186 0.996668 84.707652 0.157050 90.272752 7.104749 5.347774 6.064135 -3.986231 -0.371246 -6.448731 -0.659594 8.426808 -2.878125 0.000000 -0.000000 0.000000 -7.231280 -3.852214 0.874002 2.238993 -1.429786 0.414615 5.641706 -4.037115 -5.380228 0.000000 -0.000000 0.000000 -3.333798 3.331290 -7.360616 1.583231 -1.188822 12.495351 -0.309185 1.026546 -3.747090 4.223347 4.374815 4.401747 4.787078 -2.614425 -1.259480 -27.378417 -1.956174 0.637539 -55.836522 -6.441814 17.054593 1.361242 -23.106801 12.855472 -8.463234 -13.756265 10.986033 29.646691 5.149967 7.077827 54.354733 5.475248 14.487089 -8.849125 24.862361 1.027580 3.067893 10.921250 3.597447 
0.362160 0.167514 0.996207 85.395886 0.359421 90.556094 7.495286 4.994515 5.045006 -4.240904 -0.429505 -5.656125 -0.448215 8.230213 -2.931726 0.000000 -0.000000 0.000000 -6.798333 -3.925294 0.446047 2.150316 -1.518270 0.478992 5.251493 -4.455780 -5.500130 0.000000 -0.000000 0.000000 -3.455919 3.410310 -6.759808 1.641979 -1.753684 11.621841 -0.241057 0.981517 -3.662057 4.248996 4.050067 3.928130 5.017273 -2.357020 -0.843578 -27.922717 -2.164920 0.110503 -55.727116 -7.157717 17.104843 1.644202 -21.126027 12.624186 -8.532117 -13.805288 11.574916 29.807145 4.623776 6.483031 54.404347 5.543467 14.633359 -8.878770 24.878807 1.428316 3.061593 11.069799 3.757316 
0.361720 0.167370 0.996239 85.477639 0.380273 90.579625 7.504189 4.985107 5.001987 -4.239713 -0.415388 -5.642752 -0.431325 8.207453 -2.925025 0.000000 -0.000000 0.000000 -6.753718 -3.901564 0.399142 2.138170 -1.520150 0.438156 5.218446 -4.470606 -5.430556 0.000000 -0.000000 0.000000 -3.484776 3.413029 -6.666619 1.620559 -1.770016 11.459553 -0.241180 0.982345 -3.651390 4.377912 4.102871 3.704935 4.999769 -2.270485 -0.469280 -27.992486 -2.218880 0.082070 -55.700670 -7.274506 17.062311 1.598064 -20.869769 12.583542 -8.560332 -13.657304 11.680926 29.699446 4.509863 6.361675 54.600006 5.571206 14.680404 -8.820698 24.862501 1.526129 3.082119 11.017451 3.798738 
0.361414 0.167277 0.996445 85.508351 0.374108 90.543402 7.477897 4.966905 5.043622 -4.225495 -0.435659 -5.622280 -0.388227 8.219368 -2.948817 0.000000 -0.000000 0.000000 -6.734899 -3.876948 0.409306 2.113200 -1.510349 0.446404 5.183420 -4.489210 -5.440336 0.000000 -0.000000 0.000000 -3.489960 3.407405 -6.604458 1.565311 -1.738646 11.532457 -0.294273 1.046014 -3.788906 4.535489 4.262907 3.588739 4.940923 -2.081915 -0.117908 -27.984052 -2.432358 0.198011 -55.653945 -7.223287 17.107745 1.620079 -21.167130 12.381090 -8.624860 -12.954775 11.533311 29.555506 4.861629 6.669850 54.933219 5.429919 14.815031 -9.097132 24.856720 0.994410 3.131549 10.911814 3.623458 
0.361244 0.167230 0.996544 85.548932 0.381714 90.536418 7.482802 4.977271 5.073150 -4.237420 -0.468349 -5.622966 -0.377021 8.224194 -2.974278 0.000000 -0.000000 0.000000 -6.724547 -3.853344 0.427558 2.121659 -1.499473 0.430704 5.167370 -4.510930 -5.430475 0.000000 -0.000000 0.000000 -3.510848 3.384326 -6.572285 1.561117 -1.733169 11.498727 -0.275272 1.022737 -3.747634 4.715215 4.345892 3.589312 4.830890 -1.887250 0.003271 -27.984876 -2.403227 0.143671 -55.660126 -7.186917 17.149718 1.708256 -21.175941 12.457777 -8.701298 -12.844872 11.698886 29.411031 4.863126 6.648371 55.139167 5.417464 14.921536 -9.159941 24.945185 1.033985 3.185305 10.846544 3.581602 
0.361153 0.167088 0.996515 85.560333 0.383977 90.566275 7.474791 4.959863 5.065191 -4.229892 -0.462356 -5.642588 -0.361509 8.213290 -2.988782 0.000000 -0.000000 0.000000 -6.716859 -3.848316 0.390894 2.125922 -1.501325 0.425396 5.151896 -4.500696 -5.441853 0.000000 -0.000000 0.000000 -3.530141 3.402816 -6.649884 1.534454 -1.713663 11.557222 -0.320584 1.056724 -3.798587 4.638075 4.241984 3.534236 4.923333 -2.097548 0.029467 -27.960945 -2.460804 0.201035 -55.623804 -7.217028 17.126510 1.721270 -21.137596 12.458271 -8.817487 -12.842700 11.808023 29.422906 4.850382 6.677795 55.219202 5.393815 14.860997 -9.162820 24.994576 1.109576 3.202768 10.812934 3.497993 
0.361064 0.167075 0.996526 85.594009 0.378780 90.553640 7.487819 4.959730 5.083238 -4.265885 -0.453303 -5.631452 -0.342139 8.216572 -2.987079 0.000000 -0.000000 0.000000 -6.722513 -3.807303 0.425879 2.126983 -1.519709 0.415471 5.107615 -4.503072 -5.434806 0.000000 -0.000000 0.000000 -3.541445 3.406882 -6.639626 1.503683 -1.683193 11.624430 -0.348199 1.053732 -3.886853 4.713684 4.346863 3.529071 4.930564 -2.026372 0.194458 -27.986243 -2.543059 0.282614 -55.539295 -7.228404 17.054160 1.612582 -21.176314 12.293679 -8.859740 -12.843608 11.629375 29.359775 4.979872 6.775275 55.392975 5.278773 14.912328 -9.295881 25.062957 0.872207 3.118271 10.859663 3.437282 
0.361044 0.167034 0.996521 85.618835 0.385173 90.564109 7.477015 4.980896 5.060789 -4.232939 -0.441732 -5.600621 -0.373575 8.178045 -3.010412 0.000000 -0.000000 0.000000 -6.713703 -3.816556 0.422455 2.129048 -1.552918 0.412949 5.122386 -4.483027 -5.416935 0.000000 -0.000000 0.000000 -3.546515 3.427298 -6.703131 1.496151 -1.702394 11.739656 -0.387554 1.046225 -3.936025 4.701567 4.116166 3.698608 5.036225 -2.346182 -0.311804 -27.947325 -2.548417 0.226082 -55.548925 -7.195562 17.070026 1.609640 -21.171568 12.161672 -8.984809 -12.725603 11.755040 29.308733 5.037336 6.704681 55.501599 5.197670 14.920056 -9.300362 25.099806 0.854358 3.181458 10.825274 3.467465 
0.361028 0.166961 0.996520 85.627084 0.386748 90.573104 7.483758 4.994054 5.050680 -4.233711 -0.442155 -5.573841 -0.361429 8.156807 -3.063923 0.000000 -0.000000 0.000000 -6.705722 -3.808364 0.402740 2.115367 -1.533210 0.455803 5.131179 -4.465756 -5.425702 0.000000 -0.000000 0.000000 -3.567235 3.427391 -6.750991 1.495617 -1.703854 11.794008 -0.405203 1.044853 -3.945202 4.692188 4.028295 3.782960 5.071263 -2.509351 -0.466677 -27.927893 -2.533216 0.202542 -55.553208 -7.201875 17.069350 1.617059 -21.133680 12.117957 -9.066116 -12.705217 11.798792 29.271747 5.052418 6.693230 55.569085 5.218042 14.946572 -9.280275 25.107800 0.876996 3.242542 10.784110 3.397966 
0.361096 0.166968 0.996520 85.655028 0.393284 90.580356 7.495357 4.994767 5.035871 -4.241723 -0.450995 -5.549872 -0.370637 8.143262 -3.062604 0.000000 -0.000000 0.000000 -6.699210 -3.818012 0.402972 2.119421 -1.537547 0.460982 5.122574 -4.473566 -5.426847 0.000000 -0.000000 0.000000 -3.562223 3.405868 -6.730676 1.499055 -1.714251 11.737452 -0.414729 1.034979 -3.919029 4.675966 4.045762 3.801903 5.023839 -2.466243 -0.473816 -27.957807 -2.464319 0.143111 -55.532223 -7.177773 17.085141 1.612668 -21.094216 12.167758 -9.118775 -12.657849 11.855477 29.296492 4.938284 6.579816 55.537580 5.231099 14.958295 -9.235935 25.125944 1.022656 3.352785 10.722566 3.495373 
0.361127 0.166876 0.996485 85.671973 0.397327 90.580019 7.506585 4.980319 5.045497 -4.254356 -0.460702 -5.574623 -0.363893 8.118570 -3.066081 0.000000 -0.000000 0.000000 -6.692917 -3.842488 0.387861 2.126694 -1.532074 0.474820 5.107703 -4.502145 -5.431768 0.000000 -0.000000 0.000000 -3.583969 3.435330 -6.710037 1.530770 -1.705658 11.689504 -0.410076 1.009940 -3.856903 4.642363 4.007039 3.674622 5.010848 -2.431434 -0.426939 -28.043876 -2.425526 0.118358 -55.451348 -7.230177 17.054186 1.571241 -21.050242 12.315745 -9.085844 -12.655686 11.884725 29.423801 4.640260 6.367695 55.348774 5.348342 14.837224 -9.086379 25.159814 1.388527 3.520612 10.628651 3.645205 
0.361101 0.166893 0.996500 85.693602 0.394708 90.612712 7.474188 4.936454 4.995185 -4.222396 -0.476984 -5.546664 -0.328796 8.175843 -3.060432 0.000000 -0.000000 0.000000 -6.698725 -3.813987 0.359689 2.137443 -1.542157 0.479565 5.080437 -4.528513 -5.455820 0.000000 -0.000000 0.000000 -3.573127 3.466208 -6.717277 1.488492 -1.654332 11.737809 -0.402358 1.022275 -3.937959 4.764553 4.297748 3.549562 4.938574 -2.122804 -0.020006 -28.006496 -2.559094 0.212739 -55.451052 -7.188980 17.061261 1.602771 -21.038478 12.206825 -9.107839 -12.671158 11.819418 29.264060 4.977282 6.684110 55.564277 5.215488 14.951434 -9.292842 25.135287 0.925097 3.290641 10.734476 3.423255 
0.361101 0.166908 0.996480 85.701847 0.398697 90.625440 7.479748 4.955221 4.981034 -4.231245 -0.476878 -5.539135 -0.332048 8.179726 -3.070764 0.000000 -0.000000 0.000000 -6.708461 -3.823794 0.350762 2.154582 -1.535560 0.490976 5.070406 -4.502613 -5.442449 0.000000 -0.000000 0.000000 -3.590528 3.486617 -6.729633 1.501517 -1.646544 11.787366 -0.371584 0.995482 -3.916388 4.945216 4.434319 3.630369 4.785126 -1.852170 -0.016195 -28.051135 -2.536600 0.143326 -55.423427 -7.175855 17.073811 1.590517 -21.034666 12.190192 -9.071695 -12.654553 11.828651 29.209922 4.999353 6.702459 55.586447 5.266886 15.040348 -9.318359 25.129660 0.854738 3.255869 10.716312 3.400076 
0.361130 0.166914 0.996462 85.719748 0.414360 90.623199 7.502198 4.932983 4.973298 -4.240235 -0.476171 -5.518973 -0.310994 8.172531 -3.061972 0.000000 -0.000000 0.000000 -6.683134 -3.834517 0.352799 2.151225 -1.521355 0.496330 5.072411 -4.540179 -5.457485 0.000000 -0.000000 0.000000 -3.628112 3.499460 -6.692470 1.542602 -1.647472 11.726929 -0.371599 0.926659 -3.842913 4.812602 4.364503 3.417056 4.761398 -2.008110 0.295005 -28.052057 -2.403301 0.166382 -55.410594 -7.244082 17.040240 1.585151 -21.061148 12.462533 -9.088300 -12.681246 11.806032 29.451464 4.562377 6.439462 55.331354 5.439057 14.943846 -9.202964 25.214550 1.358331 3.513727 10.626048 3.603491 
